<svg width="67" height="67" viewBox="0 0 67 67" fill="none" xmlns="http://www.w3.org/2000/svg">
<path d="M53.1202 44.673L55.2645 44.9604C55.2702 44.918 55.2746 44.8756 55.2777 44.833L53.1202 44.673ZM55.5252 12.2325L53.3697 12.0472C53.369 12.0556 53.3683 12.0641 53.3677 12.0726L55.5252 12.2325ZM43.9672 11.0355L46.1117 11.3214C46.1128 11.3129 46.1139 11.3044 46.1149 11.2958L43.9672 11.0355ZM39.918 25.0361C39.7601 26.2205 40.5922 27.3086 41.7766 27.4665C42.961 27.6244 44.0491 26.7923 44.207 25.608L39.918 25.0361ZM20.5775 31.2065C20.7739 32.3851 21.8885 33.1813 23.0671 32.9849C24.2457 32.7886 25.042 31.6739 24.8456 30.4953L20.5775 31.2065ZM20.7405 19.0219L22.8745 18.6663L22.8733 18.6593L20.7405 19.0219ZM9.45336 20.4733L7.29813 20.662L7.29879 20.6692L9.45336 20.4733ZM11.6538 44.673H13.8173C13.8173 44.6076 13.8143 44.5422 13.8084 44.4771L11.6538 44.673ZM33.7692 36.3797L31.6058 36.3798C31.6058 37.5746 32.5744 38.5432 33.7692 38.5432C34.9641 38.5432 35.9327 37.5746 35.9327 36.3797L33.7692 36.3797ZM22.7115 32.2331H20.5481H22.7115ZM20.5481 41.9086C20.5481 43.1034 21.5167 44.0721 22.7115 44.0721C23.9064 44.0721 24.875 43.1034 24.875 41.9086H20.5481ZM42.6634 36.3797C42.6634 37.5745 43.632 38.5432 44.8269 38.5432C46.0217 38.5432 46.9903 37.5745 46.9903 36.3797H42.6634ZM33.7692 30.8509L31.6057 30.8509L31.6057 30.8509L33.7692 30.8509ZM38.4466 49.6009C39.6414 49.6009 40.61 48.6323 40.61 47.4374C40.61 46.2426 39.6414 45.274 38.4466 45.274V49.6009ZM31.0048 36.3797V38.5432V36.3797ZM49.6855 49.5177C49.3076 50.6512 49.9202 51.8764 51.0538 52.2543C52.1873 52.6321 53.4125 52.0195 53.7904 50.886L49.6855 49.5177ZM55.2777 44.833L57.6828 12.3925L53.3677 12.0726L50.9626 44.5131L55.2777 44.833ZM57.6807 12.4178C57.8599 10.3347 57.2136 8.26451 55.8813 6.65317L52.5467 9.41047C53.1561 10.1475 53.4516 11.0944 53.3697 12.0472L57.6807 12.4178ZM55.8813 6.65317C54.5489 5.04184 52.637 4.01825 50.5572 3.80287L50.1115 8.10677C51.0627 8.20529 51.9372 8.67346 52.5467 9.41047L55.8813 6.65317ZM50.5572 3.80287C48.4775 3.58748 46.3964 4.19753 44.7621 5.50163L47.4609 8.88377C48.2084 8.28729 49.1603 8.00826 50.1115 8.10677L50.5572 3.80287ZM44.7621 5.50163C43.1278 6.80573 42.071 8.69954 41.8194 10.7752L46.1149 11.2958C46.23 10.3465 46.7133 9.48025 47.4609 8.88377L44.7621 5.50163ZM41.8227 10.7496L39.918 25.0361L44.207 25.608L46.1117 11.3214L41.8227 10.7496ZM24.8456 30.4953L22.8745 18.6663L18.6065 19.3775L20.5775 31.2065L24.8456 30.4953ZM22.8733 18.6593C22.5332 16.659 21.4326 14.8678 19.8019 13.6606L17.2274 17.1383C17.9602 17.6808 18.4548 18.4857 18.6076 19.3846L22.8733 18.6593ZM19.8019 13.6606C18.1711 12.4534 16.1366 11.9238 14.1242 12.1825L14.676 16.4741C15.5803 16.3578 16.4946 16.5958 17.2274 17.1383L19.8019 13.6606ZM14.1242 12.1825C12.1118 12.4413 10.2775 13.4684 9.00516 15.0489L12.3757 17.7622C12.9474 17.0519 13.7717 16.5904 14.676 16.4741L14.1242 12.1825ZM9.00516 15.0489C7.73284 16.6294 7.12116 18.6407 7.29814 20.662L11.6086 20.2845C11.529 19.3763 11.8039 18.4724 12.3757 17.7622L9.00516 15.0489ZM7.29879 20.6692L9.49927 44.8689L13.8084 44.4771L11.6079 20.2773L7.29879 20.6692ZM35.9327 36.3797V32.2331H31.6058V36.3797H35.9327ZM35.9327 32.2331C35.9327 30.193 35.1222 28.2364 33.6797 26.7938L30.6201 29.8534C31.2512 30.4846 31.6058 31.3406 31.6058 32.2331H35.9327ZM33.6797 26.7938C32.2371 25.3512 30.2805 24.5408 28.2404 24.5408V28.8677C29.1329 28.8677 29.9889 29.2223 30.6201 29.8534L33.6797 26.7938ZM28.2404 24.5408C26.2002 24.5408 24.2437 25.3512 22.8011 26.7938L25.8607 29.8534C26.4918 29.2223 27.3478 28.8677 28.2404 28.8677V24.5408ZM22.8011 26.7938C21.3585 28.2364 20.5481 30.193 20.5481 32.2331H24.875C24.875 31.3406 25.2296 30.4846 25.8607 29.8534L22.8011 26.7938ZM20.5481 32.2331V41.9086H24.875V32.2331H20.5481ZM46.9903 36.3797V30.8509H42.6634V36.3797H46.9903ZM46.9903 30.8509C46.9903 28.8107 46.1799 26.8542 44.7373 25.4116L41.6777 28.4712C42.3088 29.1023 42.6634 29.9583 42.6634 30.8509H46.9903ZM44.7373 25.4116C43.2947 23.969 41.3382 23.1585 39.298 23.1585V27.4855C40.1906 27.4855 41.0466 27.84 41.6777 28.4712L44.7373 25.4116ZM39.298 23.1585C37.2579 23.1585 35.3013 23.969 33.8587 25.4116L36.9183 28.4712C37.5495 27.84 38.4055 27.4855 39.298 27.4855V23.1585ZM33.8587 25.4116C32.4162 26.8542 31.6057 28.8107 31.6057 30.8509H35.9326C35.9326 29.9583 36.2872 29.1023 36.9183 28.4712L33.8587 25.4116ZM31.6057 30.8509L31.6058 36.3798L35.9327 36.3797L35.9326 30.8508L31.6057 30.8509ZM50.9759 44.3857C50.2987 49.4391 48.2184 53.0376 45.1665 55.4029C42.0809 57.7944 37.7796 59.0961 32.387 59.0961V63.423C38.4446 63.423 43.7691 61.9603 47.8171 58.8229C51.8988 55.6594 54.4599 50.9646 55.2645 44.9604L50.9759 44.3857ZM32.387 59.0961C26.9751 59.0961 22.286 57.785 19.0099 55.3712C15.8098 53.0134 13.8173 49.5126 13.8173 44.673H9.49038C9.49038 50.8911 12.1393 55.6836 16.4433 58.8547C20.6711 61.9697 26.3487 63.423 32.387 63.423V59.0961ZM38.4466 45.274H31.0048V49.6009H38.4466V45.274ZM31.0048 45.274C30.1122 45.274 29.2562 44.9194 28.6251 44.2883L25.5655 47.3479C27.0081 48.7904 28.9646 49.6009 31.0048 49.6009V45.274ZM28.6251 44.2883C27.9939 43.6571 27.6394 42.8011 27.6394 41.9086H23.3124C23.3124 43.9487 24.1229 45.9053 25.5655 47.3479L28.6251 44.2883ZM27.6394 41.9086C27.6394 41.016 27.9939 40.16 28.6251 39.5289L25.5655 36.4693C24.1229 37.9119 23.3124 39.8684 23.3124 41.9086H27.6394ZM28.6251 39.5289C29.2562 38.8978 30.1122 38.5432 31.0048 38.5432L31.0048 34.2163C28.9646 34.2163 27.0081 35.0267 25.5655 36.4693L28.6251 39.5289ZM31.0048 38.5432H42.0624V34.2163H31.0048V38.5432ZM42.0624 38.5432C44.5012 38.5432 46.9891 39.6596 48.5608 41.5597C50.0685 43.3825 50.8404 46.053 49.6855 49.5177L53.7904 50.886C55.3999 46.0574 54.3888 41.8169 51.8949 38.8019C49.4651 35.8643 45.7331 34.2163 42.0624 34.2163V38.5432Z" fill="#CDCDCD"/>
</svg>
