<svg width="67" height="67" viewBox="0 0 67 67" fill="none" xmlns="http://www.w3.org/2000/svg">
<path d="M23.7059 14.8913C22.3453 14.8785 20.9908 15.075 19.6899 15.4739H19.6256L14.4423 17.0932C11.4776 18.0071 8.88382 19.8469 7.04128 22.3428C5.19874 24.8387 4.20446 27.8593 4.20428 30.9616V41.9087C4.20428 49.9014 10.7249 56.422 18.7175 56.422H39.2558C41.7832 56.4779 44.2297 54.9955 45.2166 52.5345C45.8406 50.9712 45.7515 49.3271 45.1523 47.8695C46.4712 47.1926 47.505 46.0669 48.0674 44.6953C48.3734 43.9181 48.5197 43.0872 48.4976 42.2523C48.4755 41.4173 48.2855 40.5954 47.9388 39.8354H56.0372C59.4478 39.8354 62.2572 37.0261 62.2572 33.6155C62.2572 30.2049 59.4478 27.3955 56.0372 27.3955H52.863L53.7047 27.1364C56.9681 26.1474 58.8403 22.6248 57.8514 19.3614C56.8624 16.098 53.3398 14.2258 50.0764 15.2148L32.5818 20.593C32.4224 20.1672 32.2282 19.7553 32.0012 19.3614C30.9646 17.6281 28.8664 15.6688 25.5201 15.0842C24.8981 14.9805 24.2823 14.8976 23.7059 14.8913ZM52.1497 19.1022C52.9583 19.1914 53.6488 19.7512 53.8996 20.593C54.2397 21.7105 53.5907 22.8446 52.4732 23.1846L38.2855 27.4598L38.9966 29.7923V31.5422H56.0372C57.2107 31.5422 58.1105 32.442 58.1105 33.6155C58.1105 34.789 57.2107 35.6888 56.0372 35.6888H42.3658L36.9233 33.5512C36.1638 33.2377 35.3481 33.0831 34.5266 33.0971L33.4256 24.609L51.308 19.1665C51.5812 19.0876 51.8677 19.0657 52.1497 19.1022ZM23.6416 19.1665C24.0376 19.1665 24.4502 19.1665 24.8089 19.2308C27.0357 19.6206 27.894 20.593 28.4372 21.499C28.9784 22.4071 29.0177 23.054 29.0177 23.054V23.1846L30.7697 36.5306C30.7872 36.5965 30.808 36.6615 30.8319 36.7254C30.8951 36.9807 30.9065 37.246 30.8655 37.5058C30.8245 37.7655 30.7318 38.0144 30.5931 38.2378C30.4544 38.4612 30.2723 38.6545 30.0576 38.8064C29.843 38.9583 29.6001 39.0657 29.3433 39.1222C28.6715 39.2839 28.3315 39.1948 27.9832 38.9937C27.6348 38.7905 27.2057 38.3613 26.8822 37.4387L24.2906 27.3955C24.2103 27.0933 24.0627 26.8132 23.8588 26.5761C23.6549 26.3391 23.4 26.1512 23.1133 26.0265C22.8265 25.9019 22.5153 25.8437 22.2028 25.8564C21.8904 25.8691 21.5849 25.9523 21.3092 26.0997L17.8757 27.9781C17.6368 28.1095 17.4262 28.2868 17.2561 28.4999C17.086 28.713 16.9598 28.9576 16.8846 29.2197C16.8095 29.4818 16.7869 29.7562 16.8182 30.027C16.8495 30.2978 16.9341 30.5598 17.0671 30.7978C17.1985 31.0362 17.3757 31.2463 17.5884 31.416C17.8012 31.5858 18.0454 31.7118 18.307 31.787C18.5686 31.8621 18.8424 31.8848 19.1128 31.8538C19.3833 31.8229 19.6449 31.7388 19.8827 31.6064L20.9194 31.0238L22.9305 38.6702C22.9481 38.7355 22.9688 38.7998 22.9927 38.863C23.5525 40.4678 24.5083 41.7553 25.8456 42.5577C26.9382 43.2129 28.2092 43.4637 29.4739 43.3352C28.7957 43.9674 28.2648 44.7411 27.9189 45.6013C27.4639 46.7242 27.3502 47.9563 27.5922 49.1435C27.8341 50.3307 28.4209 51.4201 29.279 52.2753H18.7175C12.9682 52.2753 8.35092 47.6581 8.35092 41.9087V30.9596C8.35092 26.3983 11.3158 22.3905 15.6718 21.047L20.8551 19.492C21.276 19.3614 22.4598 19.1665 23.6416 19.1665ZM34.9163 37.308C35.0698 37.3329 35.2149 37.308 35.3683 37.3744L43.079 40.4844C44.1633 40.9198 44.6817 42.0539 44.2463 43.1382C43.8088 44.2246 42.6083 44.743 41.524 44.3055L33.8133 41.2619C33.7014 41.2204 33.6516 41.123 33.5542 41.067C34.4028 39.9943 34.8807 38.6754 34.9163 37.308ZM33.6205 45.8605C33.8942 45.8605 34.1865 45.8854 34.4623 45.9911L37.2467 47.092L39.969 48.193L40.2282 48.2593C41.3125 48.6947 41.8308 49.8952 41.3954 50.9795C41.2523 51.3488 41.0043 51.6682 40.682 51.8984C40.3597 52.1287 39.9771 52.2597 39.5813 52.2753H39.515C39.2286 52.285 38.9431 52.2407 38.6732 52.1447L32.9073 49.8122C32.6504 49.7124 32.4159 49.5624 32.2177 49.371C32.0194 49.1795 31.8613 48.9504 31.7526 48.6972C31.6439 48.4439 31.5869 48.1715 31.5847 47.8959C31.5825 47.6203 31.6353 47.347 31.74 47.092C31.8401 46.844 31.9892 46.6186 32.1784 46.4295C32.3675 46.2403 32.5929 46.0912 32.8409 45.9911C33.0885 45.8924 33.3543 45.8479 33.6205 45.8605Z" fill="#CDCDCD"/>
</svg>
