<svg width="68" height="67" viewBox="0 0 68 67" fill="none" xmlns="http://www.w3.org/2000/svg">
<path d="M20.5233 31.5421C20.5233 32.1572 20.3409 32.7585 19.9992 33.2699C19.6575 33.7813 19.1718 34.1799 18.6035 34.4153C18.0352 34.6507 17.4099 34.7123 16.8066 34.5923C16.2034 34.4723 15.6492 34.1761 15.2143 33.7412C14.7793 33.3062 14.4831 32.7521 14.3631 32.1488C14.2431 31.5455 14.3047 30.9202 14.5401 30.3519C14.7755 29.7837 15.1741 29.298 15.6855 28.9562C16.197 28.6145 16.7983 28.4321 17.4134 28.4321C18.2382 28.4321 19.0292 28.7598 19.6124 29.343C20.1957 29.9262 20.5233 30.7173 20.5233 31.5421ZM63.0263 31.5421V54.3486C63.0263 55.4483 62.5895 56.503 61.8118 57.2807C61.0342 58.0583 59.9795 58.4952 58.8797 58.4952H29.8533C28.7535 58.4952 27.6988 58.0583 26.9211 57.2807C26.1435 56.503 25.7066 55.4483 25.7066 54.3486V48.7377C23.47 52.3712 20.57 54.3486 17.4134 54.3486C13.8187 54.3486 10.5559 51.7854 8.22856 47.1308C6.12932 42.9453 4.97345 37.3966 4.97345 31.5421C4.97345 25.6876 6.12932 20.1518 8.22856 15.9533C10.5559 11.2987 13.8187 8.7356 17.4134 8.7356H50.5864C54.181 8.7356 57.4439 11.2987 59.7712 15.9533C61.8705 20.1518 63.0263 25.6876 63.0263 31.5421ZM25.7066 31.5421C25.7066 20.5457 21.3371 12.8822 17.4134 12.8822C13.4896 12.8822 9.12008 20.5457 9.12008 31.5421C9.12008 42.5384 13.4896 50.2019 17.4134 50.2019C21.3371 50.2019 25.7066 42.5384 25.7066 31.5421ZM58.8797 54.3486V33.6154H54.7331C54.1832 33.6154 53.6558 33.397 53.267 33.0081C52.8782 32.6193 52.6597 32.092 52.6597 31.5421C52.6597 30.9922 52.8782 30.4649 53.267 30.076C53.6558 29.6872 54.1832 29.4688 54.7331 29.4688H58.8253C58.3199 19.5946 54.2562 12.8822 50.5864 12.8822H24.7011C25.4291 13.8437 26.0643 14.872 26.5981 15.9533C28.4486 19.6542 29.563 24.3917 29.804 29.4688H33.9999C34.5498 29.4688 35.0771 29.6872 35.466 30.076C35.8548 30.4649 36.0732 30.9922 36.0732 31.5421C36.0732 32.092 35.8548 32.6193 35.466 33.0081C35.0771 33.397 34.5498 33.6154 33.9999 33.6154H29.8533V54.3486H58.8797ZM46.4398 29.4688H42.2932C41.7433 29.4688 41.2159 29.6872 40.8271 30.076C40.4383 30.4649 40.2198 30.9922 40.2198 31.5421C40.2198 32.092 40.4383 32.6193 40.8271 33.0081C41.2159 33.397 41.7433 33.6154 42.2932 33.6154H46.4398C46.9897 33.6154 47.517 33.397 47.9059 33.0081C48.2947 32.6193 48.5131 32.092 48.5131 31.5421C48.5131 30.9922 48.2947 30.4649 47.9059 30.076C47.517 29.6872 46.9897 29.4688 46.4398 29.4688Z" fill="#CDCDCD"/>
</svg>
